<?xml version="1.0" standalone="no"?>
<!DOCTYPE svg PUBLIC "-//W3C//DTD SVG 20010904//EN"
 "http://www.w3.org/TR/2001/REC-SVG-20010904/DTD/svg10.dtd">
<svg version="1.0" xmlns="http://www.w3.org/2000/svg"
 width="1042.000000pt" height="562.000000pt" viewBox="0 0 1042.000000 562.000000"
 preserveAspectRatio="xMidYMid meet">

<g transform="translate(0.000000,562.000000) scale(0.100000,-0.100000)"
fill="#000000" stroke="none">
<path d="M3280 5530 c-41 -10 -101 -23 -132 -30 l-58 -11 0 -136 c0 -120 -2
-134 -16 -129 -9 3 -46 11 -83 17 -179 27 -372 -64 -461 -219 -19 -34 -39 -62
-44 -62 -4 0 -54 45 -109 100 -144 142 -245 190 -395 190 -69 -1 -130 -13
-196 -41 l-49 -21 -156 156 -157 156 -177 0 -177 0 -20 -32 c-11 -18 -50 -90
-87 -160 l-68 -128 -158 158 -157 157 -168 3 c-100 2 -178 -1 -195 -7 l-27
-11 0 -553 0 -554 165 -164 166 -164 -42 -100 c-22 -55 -74 -181 -114 -280
-41 -99 -108 -263 -150 -365 -42 -102 -83 -204 -92 -227 -8 -24 -19 -45 -24
-49 -5 -3 -9 -20 -8 -37 1 -28 20 -49 134 -157 73 -69 133 -131 134 -137 1
-10 -22 -13 -84 -13 l-85 0 0 -560 0 -559 135 -132 c74 -73 135 -136 135 -140
0 -5 -60 -10 -132 -11 l-133 -3 -3 -561 -2 -561 77 -76 78 -77 5038 0 5037 0
0 1111 0 1111 -235 233 -236 232 -132 -28 c-73 -16 -136 -29 -141 -29 -5 0
-267 259 -583 575 -649 649 -621 626 -773 633 -62 3 -103 0 -144 -12 -41 -12
-61 -14 -75 -6 -11 5 -84 10 -165 10 l-146 0 0 -142 0 -141 -99 96 c-114 111
-168 148 -259 178 -56 19 -80 21 -181 16 l-116 -5 -680 678 c-440 439 -694
685 -720 698 -93 45 -217 53 -312 19 -23 -8 -45 -11 -50 -6 -11 10 -64 13
-205 11 -114 -2 -118 -3 -118 -24 l0 -22 -21 23 c-11 12 -32 26 -46 32 -42 16
-149 10 -205 -11 -31 -12 -56 -16 -62 -11 -14 12 -65 15 -208 13 l-118 -2 0
-137 0 -137 -112 111 c-69 67 -133 121 -164 136 -97 49 -241 59 -345 23 l-43
-15 -168 170 c-97 97 -176 169 -186 168 -9 -1 -51 -9 -92 -19z m100 -590 l0
-560 -120 0 -120 0 0 25 c0 25 -17 33 -36 16 -20 -18 -136 -51 -183 -51 -55 0
-166 31 -214 60 -59 36 -127 113 -160 179 -30 63 -32 72 -32 181 0 115 0 115
39 188 76 143 208 222 372 222 68 0 166 -21 192 -42 9 -8 12 21 12 141 0 148
0 151 23 156 144 36 176 43 200 44 l27 1 0 -560z m-2780 442 c88 -171 213
-408 220 -415 4 -5 66 102 136 237 l129 246 168 0 167 0 0 -535 0 -535 -125 0
-125 0 -2 356 -3 357 -166 -309 c-92 -169 -170 -309 -175 -311 -5 -2 -80 129
-167 291 -87 162 -165 303 -172 313 -12 15 -14 -32 -15 -339 l0 -358 -120 0
-120 0 0 535 0 535 168 0 167 0 35 -68z m1528 -197 c79 -24 169 -91 219 -163
58 -85 76 -153 71 -261 -5 -109 -45 -196 -122 -270 -97 -90 -194 -125 -334
-119 -82 4 -108 9 -164 36 -90 41 -169 117 -211 201 -30 62 -32 71 -32 181 0
112 1 116 35 179 106 195 319 281 538 216z m1931 -6 c98 -34 190 -124 230
-226 22 -55 47 -214 37 -238 -5 -13 -48 -15 -286 -15 -164 0 -280 -4 -280 -9
0 -19 53 -72 91 -91 57 -29 141 -27 207 6 44 22 54 24 70 12 36 -25 142 -123
142 -129 0 -16 -119 -81 -183 -100 -55 -17 -87 -20 -170 -17 -91 4 -110 8
-177 39 -171 81 -260 244 -238 437 9 84 46 161 109 227 114 121 285 160 448
104z m905 21 c26 -9 26 -11 26 -120 l0 -111 -22 12 c-13 7 -52 13 -88 13 -54
1 -73 -4 -112 -27 -80 -47 -78 -38 -78 -329 l0 -258 -125 0 -125 0 0 405 0
405 125 0 125 0 0 -37 0 -37 28 26 c63 59 174 86 246 58z m736 -21 c55 -24
119 -86 150 -147 32 -61 41 -166 38 -422 l-3 -225 -125 0 -125 0 -5 260 c-4
189 -9 266 -18 283 -36 62 -142 82 -217 39 l-40 -23 -5 -279 -5 -280 -122 -3
-123 -3 0 406 0 405 125 0 125 0 0 -24 0 -25 44 25 c24 14 64 29 88 34 60 13
163 3 218 -21z m-1769 -1064 c90 -47 90 -193 0 -240 -91 -47 -201 17 -201 118
0 104 108 170 201 122z m2739 0 c49 -25 70 -62 70 -120 0 -38 -6 -60 -21 -79
-82 -104 -249 -53 -249 77 0 104 108 170 200 122z m-3080 -575 l0 -560 -125 0
-125 0 0 534 0 533 108 22 c59 13 112 24 117 26 6 2 13 4 18 4 4 1 7 -251 7
-559z m-2668 380 c131 -330 256 -637 339 -837 22 -51 39 -94 39 -97 0 -4 -65
-6 -144 -6 l-143 0 -43 118 c-23 64 -47 123 -52 130 -11 13 -307 18 -380 6
-34 -6 -38 -10 -61 -73 -14 -36 -35 -92 -47 -123 l-21 -58 -140 0 c-76 0 -139
1 -139 3 0 2 15 39 34 83 43 100 165 396 296 719 56 138 104 253 107 258 2 4
72 6 155 5 l150 -3 50 -125z m5238 -5 l0 -124 113 -3 112 -3 3 -102 3 -102
-113 -3 -113 -3 -3 -61 -3 -62 77 -7 c67 -6 172 -30 226 -50 16 -6 18 8 20
192 l3 198 123 3 122 3 0 -292 0 -291 34 -41 c18 -23 45 -63 59 -88 23 -40 34
-47 84 -63 120 -38 206 -97 283 -193 38 -49 45 -53 83 -53 91 0 197 -48 271
-124 113 -114 152 -282 100 -430 -12 -33 -15 -102 -14 -343 l1 -303 -127 0
-127 0 6 233 c4 131 2 249 -3 272 -6 25 -22 52 -44 73 -29 26 -44 32 -81 32
-48 0 -92 -17 -114 -44 -10 -12 -13 -78 -12 -291 l2 -275 -125 0 -125 0 -3
258 c-3 223 -5 261 -21 289 -35 64 -133 84 -198 40 l-34 -23 -3 -282 -2 -282
-125 0 -125 0 0 405 0 405 125 0 125 0 0 -24 0 -25 47 27 c38 21 64 27 134 30
96 5 147 -11 219 -68 l39 -31 45 35 c68 52 132 69 235 64 100 -5 151 -28 214
-97 20 -22 38 -37 41 -33 14 22 17 115 6 168 -24 117 -84 195 -192 248 -61 31
-80 36 -143 36 l-71 0 -22 38 c-30 53 -128 145 -190 176 -28 14 -77 33 -107
41 -63 16 -75 22 -75 37 0 5 -21 41 -47 80 -119 178 -314 291 -526 305 -240
15 -452 -78 -602 -267 -31 -39 -61 -68 -66 -65 -19 12 -186 5 -243 -10 -253
-67 -429 -337 -386 -592 l11 -69 45 -17 c143 -53 244 -172 275 -325 25 -122
-20 -262 -114 -356 -170 -170 -451 -174 -627 -10 -210 196 -157 536 105 669
63 32 87 39 160 44 l86 6 2 140 c3 127 5 146 30 204 33 79 74 142 128 201 l42
44 -34 26 c-84 63 -112 114 -111 205 0 70 10 99 47 144 73 86 253 121 434 85
l34 -7 -5 47 c-3 26 -14 56 -23 66 -44 48 -181 50 -301 5 -37 -14 -68 -25 -70
-25 -7 0 -84 159 -84 174 0 14 20 24 100 50 233 76 451 56 552 -51 56 -59 71
-114 76 -275 2 -82 6 -148 8 -148 2 0 27 17 57 38 29 20 77 48 105 61 l52 24
0 89 0 88 -80 0 -80 0 0 105 0 105 80 0 79 0 3 102 3 101 95 22 c52 12 107 23
123 24 l27 1 0 -125z m-4264 -126 c80 -15 186 -72 234 -127 185 -209 123 -531
-126 -653 -105 -52 -252 -53 -371 -3 -10 4 -13 -37 -15 -173 l-3 -178 -119 -3
c-67 -1 -124 2 -129 7 -6 6 -7 214 -2 565 l7 556 119 0 119 0 0 -24 0 -25 54
25 c49 22 113 40 157 43 8 1 42 -4 75 -10z m1056 -19 c81 -31 136 -69 180
-123 168 -212 102 -516 -139 -638 -65 -33 -70 -34 -188 -34 -95 0 -127 4 -152
18 -18 9 -37 17 -43 17 -6 0 -10 -61 -10 -180 l0 -181 -122 3 -123 3 -3 563
-2 562 125 0 125 0 0 -25 0 -25 43 22 c97 50 208 57 309 18z m1694 16 c67 -18
164 -70 200 -107 l28 -30 -75 -75 -76 -76 -54 38 c-51 37 -57 39 -129 39 -93
0 -130 -23 -166 -99 -41 -88 -25 -185 42 -248 74 -69 173 -65 270 8 17 13 33
24 36 24 3 0 36 -34 74 -76 l68 -77 -42 -37 c-93 -83 -232 -121 -364 -100
-236 36 -390 248 -350 480 27 160 126 274 281 327 77 26 179 30 257 9z m2757
-1 c196 -59 317 -213 317 -405 0 -156 -84 -292 -226 -367 -119 -63 -291 -65
-414 -6 -158 76 -262 271 -232 433 39 214 213 358 432 359 41 1 97 -6 123 -14z
m1041 -14 c61 -30 117 -87 148 -149 22 -45 23 -57 26 -344 l3 -298 -125 0
-126 0 0 250 c0 272 -3 287 -56 329 -39 31 -138 30 -185 -2 l-34 -23 -3 -277
-2 -277 -130 0 -130 0 2 403 3 402 125 0 c122 0 125 -1 128 -22 3 -22 4 -22
34 -7 69 36 104 44 188 41 66 -2 96 -7 134 -26z m-4456 -388 l2 -403 -125 0
-125 0 0 405 0 406 123 -3 122 -3 3 -402z m292 -1253 l0 -560 -125 0 -125 0 0
534 c0 501 1 535 18 539 15 5 127 30 177 40 60 13 55 62 55 -553z m-3415 477
c143 -57 243 -146 306 -272 47 -95 63 -175 55 -270 -10 -125 -58 -230 -149
-323 -67 -68 -126 -106 -218 -139 -72 -26 -82 -26 -351 -31 l-278 -4 0 537 0
536 283 -3 c281 -3 282 -4 352 -31z m9085 -97 l0 -130 110 0 110 0 0 -105 0
-105 -110 0 -110 0 0 -174 c0 -210 4 -219 91 -220 30 -1 70 1 89 4 l35 5 0
-100 0 -100 -55 -13 c-31 -7 -93 -11 -142 -9 -115 4 -188 39 -233 111 l-30 49
-3 223 -3 223 -82 3 -82 3 0 100 0 100 80 5 80 5 3 102 3 102 77 16 c42 9 91
21 107 25 68 18 65 23 65 -120z m-8032 -159 c136 -73 217 -207 229 -377 l6
-84 -287 0 c-177 0 -286 -4 -286 -10 0 -22 64 -80 105 -96 60 -22 160 -15 210
16 40 25 39 25 110 -42 l41 -38 149 86 c83 48 152 88 154 89 1 2 -11 37 -27
77 -51 122 -118 280 -146 342 -14 32 -26 60 -26 63 0 2 61 2 136 1 l136 -3 69
-169 c37 -92 70 -171 73 -174 3 -3 23 3 44 12 21 10 47 16 58 14 16 -2 26 15
61 102 23 58 53 131 67 163 l25 57 131 0 c102 0 131 -3 127 -12 -3 -7 -46
-109 -96 -227 -51 -117 -90 -215 -89 -216 19 -15 221 -125 224 -122 3 2 0 17
-7 33 -36 95 -30 221 17 320 35 75 122 162 199 200 56 27 68 29 180 29 113 0
123 -2 174 -29 134 -70 212 -189 232 -350 6 -48 8 -94 5 -102 -4 -12 -51 -14
-286 -14 -223 0 -280 -3 -280 -13 0 -22 73 -84 114 -97 55 -18 156 -8 200 20
41 25 33 29 142 -68 l59 -53 -25 -20 c-71 -56 -174 -94 -287 -105 l-73 -7 0
-279 c0 -214 3 -279 13 -282 34 -10 134 -39 145 -43 9 -4 12 29 12 144 l0 149
108 23 c59 13 115 25 125 28 16 4 17 -27 17 -556 l0 -561 -125 0 -125 0 0 26
c0 14 -3 24 -8 22 -99 -51 -106 -53 -212 -53 -97 0 -110 2 -170 31 -123 58
-206 170 -232 313 -23 122 26 263 123 356 65 62 120 90 212 109 l62 13 3 261
c1 152 -1 262 -7 262 -5 0 -69 -35 -142 -78 -74 -43 -239 -138 -366 -212
l-233 -134 0 -53 c0 -42 4 -55 18 -60 100 -33 171 -96 199 -176 16 -46 18 -88
18 -337 l0 -285 -122 -3 c-115 -2 -123 -1 -123 17 0 18 -3 17 -62 -7 -92 -37
-220 -37 -301 0 -103 48 -149 118 -149 226 -1 79 35 143 103 185 67 41 194 62
295 48 112 -16 114 -16 114 19 0 110 -113 148 -286 96 -44 -12 -87 -26 -96
-31 -15 -6 -25 8 -59 79 -22 47 -38 90 -35 95 19 31 259 91 364 91 l63 0 -3
47 -3 48 -205 119 c-459 265 -530 306 -535 306 -3 0 -5 -131 -5 -292 l0 -291
60 -54 c180 -163 182 -435 4 -603 -192 -181 -522 -149 -669 65 -93 135 -98
317 -11 453 31 49 113 125 162 150 101 51 234 66 330 37 27 -8 52 -15 57 -15
4 0 6 134 5 298 l-3 297 -31 -3 c-48 -5 -166 24 -230 56 -324 164 -293 636 49
763 42 16 73 19 157 16 97 -2 110 -5 168 -36z m4097 1 c84 -40 157 -113 198
-200 30 -63 32 -73 32 -182 0 -107 -2 -119 -29 -175 -89 -180 -315 -279 -497
-217 -30 11 -61 21 -69 23 -13 3 -15 -21 -18 -173 l-2 -178 -125 0 -125 0 0
565 0 565 125 0 125 0 0 -25 c0 -30 2 -30 43 -8 103 54 233 55 342 5z m2271
23 c67 -20 150 -79 196 -140 51 -67 78 -151 85 -257 l6 -88 -281 0 c-160 0
-283 -4 -287 -9 -8 -14 58 -79 98 -96 58 -24 144 -19 205 11 l52 26 75 -68
c42 -37 74 -72 72 -78 -7 -22 -102 -77 -171 -98 -230 -70 -463 25 -559 230
-28 60 -31 77 -32 162 0 111 16 168 74 250 43 63 138 132 209 154 62 19 196
20 258 1z m1017 -15 c58 -29 112 -86 141 -149 20 -43 21 -64 24 -343 l3 -298
-125 0 -126 0 0 253 c0 225 -2 256 -18 286 -45 83 -173 95 -254 23 -16 -14
-18 -41 -18 -289 l0 -273 -125 0 -125 0 2 403 3 402 123 3 122 3 0 -26 0 -25
43 21 c67 35 86 38 187 36 79 -2 103 -6 143 -27z m-4233 -1250 c0 -99 2 -180
4 -180 2 0 30 12 62 26 172 78 363 15 441 -145 l28 -56 0 -295 0 -295 -120 0
-120 0 -5 260 c-5 282 -7 291 -63 325 -39 24 -126 27 -165 5 -61 -33 -57 -12
-62 -312 l-5 -278 -120 0 -120 0 -3 533 c-2 474 0 533 13 539 14 5 207 49 228
52 4 1 7 -80 7 -179z m-4144 98 c80 -26 157 -92 194 -164 38 -74 41 -203 7
-276 -29 -64 -75 -119 -125 -149 -20 -13 -39 -24 -41 -25 -2 -2 47 -95 108
-208 61 -112 111 -209 111 -215 0 -7 -48 -11 -140 -11 l-140 0 -20 32 c-11 18
-57 106 -103 195 l-82 163 -97 0 -98 0 0 -184 c0 -145 -3 -186 -14 -195 -9 -8
-54 -11 -132 -9 l-119 3 -3 533 -2 532 315 0 c296 0 318 -1 381 -22z m3604
-248 c78 -23 144 -53 154 -69 9 -13 -105 -163 -118 -157 -142 64 -247 82 -304
52 -23 -12 -32 -24 -32 -41 0 -32 31 -52 95 -60 218 -30 294 -55 349 -116 89
-98 65 -259 -52 -343 -70 -51 -148 -71 -272 -70 -142 1 -275 33 -339 83 l-24
18 53 77 c29 42 57 79 61 82 4 2 23 -5 41 -16 142 -87 398 -73 348 20 -12 22
-44 32 -190 55 -208 34 -290 105 -290 250 0 124 72 207 212 245 92 25 202 22
308 -10z m1756 9 c202 -62 313 -222 302 -431 -7 -110 -38 -179 -117 -259 -214
-213 -581 -154 -716 116 -28 56 -30 68 -30 170 0 102 2 115 31 175 38 80 78
128 147 173 112 74 256 95 383 56z m633 -216 c30 -120 57 -221 60 -225 4 -4
26 57 50 135 24 78 55 179 69 225 l25 83 106 -3 106 -3 65 -215 c37 -118 68
-221 71 -229 3 -7 27 76 54 185 26 110 52 214 57 232 l9 32 114 0 c63 0 115
-2 115 -5 0 -23 -212 -780 -222 -792 -7 -9 -42 -13 -119 -13 -126 0 -114 -10
-153 130 -48 167 -97 322 -102 317 -3 -3 -34 -100 -69 -216 -35 -116 -67 -215
-70 -221 -7 -11 -214 -14 -231 -2 -5 4 -30 79 -54 167 -23 88 -57 214 -75 280
-18 66 -47 171 -64 233 -17 62 -31 115 -31 117 0 3 53 5 118 5 l118 0 53 -217z"/>
<path d="M2880 4974 c-81 -35 -123 -100 -124 -189 0 -52 5 -68 32 -107 41 -60
98 -88 179 -88 59 0 110 15 146 43 15 12 17 33 17 155 l0 141 -27 19 c-63 43
-158 54 -223 26z"/>
<path d="M1900 4968 c-62 -32 -102 -92 -108 -163 -6 -77 31 -154 93 -191 52
-30 135 -35 183 -10 43 22 90 80 103 128 44 167 -123 313 -271 236z"/>
<path d="M3828 4980 c-38 -21 -84 -83 -73 -100 8 -12 311 -14 319 -1 10 15
-50 87 -87 104 -46 22 -113 21 -159 -3z"/>
<path d="M700 3745 c-40 -96 -110 -288 -107 -292 3 -2 58 -2 124 -1 l121 3
-48 125 c-26 69 -54 141 -62 160 l-16 35 -12 -30z"/>
<path d="M5220 3287 c-75 -29 -77 -103 -2 -134 42 -18 144 -13 190 9 23 11 27
20 30 64 3 46 1 52 -20 58 -52 14 -164 16 -198 3z"/>
<path d="M4755 2161 c-52 -23 -102 -81 -111 -126 -27 -146 52 -257 185 -257
69 0 108 18 149 68 88 106 47 265 -80 318 -49 21 -94 20 -143 -3z"/>
<path d="M1675 3562 c-65 -30 -66 -34 -63 -188 l3 -139 54 -27 c99 -50 210
-32 278 45 36 41 48 86 41 158 -6 56 -25 87 -82 133 -34 28 -46 31 -114 34
-59 2 -87 -2 -117 -16z"/>
<path d="M2665 3561 c-65 -29 -66 -33 -63 -187 l3 -139 55 -28 c48 -25 64 -28
122 -25 55 3 75 9 110 34 132 93 113 287 -34 349 -50 20 -143 19 -193 -4z"/>
<path d="M7185 3555 c-22 -13 -51 -41 -65 -61 -21 -32 -25 -49 -25 -114 0 -68
3 -81 27 -113 45 -58 85 -80 149 -85 100 -7 177 53 200 156 21 89 -29 196
-107 228 -54 22 -133 18 -179 -11z"/>
<path d="M500 2109 l0 -301 128 4 c118 3 130 5 174 31 59 35 104 86 130 146
28 65 23 187 -10 251 -63 121 -162 170 -342 170 l-80 0 0 -301z"/>
<path d="M1665 2176 c-35 -15 -95 -79 -95 -101 0 -13 26 -15 159 -15 88 0 162
4 165 8 10 17 -44 80 -87 101 -49 24 -98 26 -142 7z"/>
<path d="M3435 2176 c-36 -16 -80 -62 -90 -93 l-6 -23 165 0 c91 0 166 3 166
8 0 4 -11 24 -25 44 -44 65 -141 95 -210 64z"/>
<path d="M2545 1942 c-55 -32 -208 -121 -340 -196 -132 -76 -255 -147 -273
-159 l-34 -20 69 -40 c115 -67 606 -350 644 -371 l37 -20 258 149 c143 82 310
178 372 214 90 51 110 67 100 77 -11 9 -725 424 -731 424 -1 0 -47 -26 -102
-58z"/>
<path d="M1542 753 c-67 -33 -118 -137 -105 -215 8 -55 60 -127 107 -152 80
-41 186 -15 243 60 23 31 28 49 31 109 4 74 -8 114 -47 159 -47 53 -161 73
-229 39z"/>
<path d="M3385 756 c-38 -17 -90 -72 -104 -109 -14 -36 -14 -118 0 -154 14
-38 56 -81 103 -105 59 -30 168 -23 224 15 l42 27 0 139 c0 153 -1 156 -73
186 -45 18 -151 19 -192 1z"/>
<path d="M2468 483 c-36 -6 -78 -47 -78 -77 0 -15 12 -34 31 -50 26 -22 40
-26 93 -26 34 0 83 7 109 16 l47 16 0 53 c0 46 -3 54 -22 58 -36 9 -150 16
-180 10z"/>
<path d="M5728 2170 c-15 -4 -44 -18 -63 -30 l-36 -22 3 -146 3 -146 46 -23
c53 -28 142 -33 202 -14 52 18 114 91 123 146 11 76 -3 122 -55 175 -61 64
-141 85 -223 60z"/>
<path d="M8102 2183 c-31 -6 -102 -78 -102 -103 0 -19 7 -20 160 -20 182 0
185 2 124 70 -47 52 -103 68 -182 53z"/>
<path d="M500 890 l0 -120 140 0 c196 0 240 22 240 120 0 98 -44 120 -240 120
l-140 0 0 -120z"/>
<path d="M6075 756 c-62 -27 -115 -113 -115 -186 0 -75 54 -160 117 -186 41
-18 115 -18 156 0 63 26 117 111 117 186 0 75 -54 160 -117 186 -41 17 -119
17 -158 0z"/>
</g>
</svg>
